<svg xmlns="http://www.w3.org/2000/svg" width="111.804" height="21.532" viewBox="0 0 111.804 21.532">
  <path id="패스_864067" data-name="패스 864067" d="M1.848,0V-20.86h6.8a12.21,12.21,0,0,1,5.88,1.344,9.7,9.7,0,0,1,3.864,3.7,10.471,10.471,0,0,1,1.372,5.376A10.547,10.547,0,0,1,18.4-5.054a9.672,9.672,0,0,1-3.864,3.71A12.21,12.21,0,0,1,8.652,0Zm4.34-3.78H8.764a7.144,7.144,0,0,0,3.528-.826A5.826,5.826,0,0,0,14.6-6.93a7.164,7.164,0,0,0,.826-3.514,7.144,7.144,0,0,0-.826-3.528,5.757,5.757,0,0,0-2.31-2.3,7.244,7.244,0,0,0-3.528-.812H6.188ZM35.84.336a7.235,7.235,0,0,1-2.9-.574A5.068,5.068,0,0,1,30.8-1.932l.392-.868V0h-3.92V-21.2h4.2v8.82l-.644-.84a5.031,5.031,0,0,1,2.058-1.778,6.764,6.764,0,0,1,2.982-.63,7.5,7.5,0,0,1,3.948,1.064,7.865,7.865,0,0,1,2.8,2.87,7.984,7.984,0,0,1,1.036,4.046A8.093,8.093,0,0,1,42.63-3.612,7.725,7.725,0,0,1,39.844-.728,7.6,7.6,0,0,1,35.84.336Zm-.5-3.78a3.981,3.981,0,0,0,2.072-.532,3.7,3.7,0,0,0,1.4-1.484,4.6,4.6,0,0,0,.5-2.184,4.515,4.515,0,0,0-.5-2.17,3.825,3.825,0,0,0-1.4-1.484,3.9,3.9,0,0,0-2.072-.546,3.8,3.8,0,0,0-2,.532,3.636,3.636,0,0,0-1.372,1.484,4.705,4.705,0,0,0-.49,2.184,4.705,4.705,0,0,0,.49,2.184,3.636,3.636,0,0,0,1.372,1.484A3.8,3.8,0,0,0,35.336-3.444ZM53.7.336A8.349,8.349,0,0,1,49.574-.7a7.96,7.96,0,0,1-2.968-2.842,7.7,7.7,0,0,1-1.106-4.1,7.676,7.676,0,0,1,1.106-4.116,8,8,0,0,1,2.968-2.828,8.35,8.35,0,0,1,4.13-1.036,8.271,8.271,0,0,1,4.116,1.036,8.027,8.027,0,0,1,2.954,2.828A7.676,7.676,0,0,1,61.88-7.644a7.7,7.7,0,0,1-1.106,4.1A7.991,7.991,0,0,1,57.82-.7,8.271,8.271,0,0,1,53.7.336Zm0-3.78a3.708,3.708,0,0,0,2-.532A3.7,3.7,0,0,0,57.05-5.46a4.705,4.705,0,0,0,.49-2.184,4.62,4.62,0,0,0-.49-2.17A3.827,3.827,0,0,0,55.706-11.3a3.636,3.636,0,0,0-2-.546,3.706,3.706,0,0,0-2.016.546A3.79,3.79,0,0,0,50.33-9.814a4.62,4.62,0,0,0-.49,2.17,4.705,4.705,0,0,0,.49,2.184,3.667,3.667,0,0,0,1.358,1.484A3.78,3.78,0,0,0,53.7-3.444ZM69.832.336a5.916,5.916,0,0,1-3.15-.8,5.087,5.087,0,0,1-1.974-2.226,7.75,7.75,0,0,1-.672-3.332v-9.268h4.2v8.932a3.2,3.2,0,0,0,.35,1.526,2.5,2.5,0,0,0,.994,1.022,2.907,2.907,0,0,0,1.456.364,2.886,2.886,0,0,0,1.47-.364,2.522,2.522,0,0,0,.98-1.022,3.2,3.2,0,0,0,.35-1.526v-8.932h4.2V0h-3.92V-3.024l.224.672a3.8,3.8,0,0,1-1.722,2.03A5.666,5.666,0,0,1,69.832.336ZM81.116,0V-15.288h3.92v3.024l-.224-.672a3.8,3.8,0,0,1,1.722-2.03,5.666,5.666,0,0,1,2.786-.658,6.123,6.123,0,0,1,3.038.728,5.178,5.178,0,0,1,2.03,2.03,6.123,6.123,0,0,1,.728,3.038V0h-4.2V-8.932a3.181,3.181,0,0,0-.35-1.54,2.545,2.545,0,0,0-.98-1.008,2.886,2.886,0,0,0-1.47-.364,2.907,2.907,0,0,0-1.456.364,2.519,2.519,0,0,0-.994,1.008,3.181,3.181,0,0,0-.35,1.54V0Zm23.968.336a7.6,7.6,0,0,1-4-1.064,7.725,7.725,0,0,1-2.786-2.884,8.093,8.093,0,0,1-1.022-4.032,7.984,7.984,0,0,1,1.036-4.046,7.865,7.865,0,0,1,2.8-2.87,7.5,7.5,0,0,1,3.948-1.064,6.764,6.764,0,0,1,2.982.63,5.031,5.031,0,0,1,2.058,1.778l-.644.84V-21.2h4.2V0h-3.92V-2.8l.392.868A4.863,4.863,0,0,1,108-.238,7.336,7.336,0,0,1,105.084.336Zm.5-3.78a3.78,3.78,0,0,0,2.016-.532,3.667,3.667,0,0,0,1.358-1.484,4.705,4.705,0,0,0,.49-2.184,4.705,4.705,0,0,0-.49-2.184,3.667,3.667,0,0,0-1.358-1.484,3.78,3.78,0,0,0-2.016-.532,3.922,3.922,0,0,0-2.058.546,3.793,3.793,0,0,0-1.414,1.484,4.515,4.515,0,0,0-.5,2.17,4.6,4.6,0,0,0,.5,2.184,3.672,3.672,0,0,0,1.414,1.484A4,4,0,0,0,105.588-3.444Z" transform="translate(-1.848 21.196)"/>
</svg>
