<svg xmlns="http://www.w3.org/2000/svg" viewBox="0 0 409 142" width="409" height="142"><path d="M189.2 35L202 .1h-5.5L183.7 35m19 0L215.5.1H210L197.2 35" fill="#fff"/><path class="st0" d="M107.5 39.1h18.1l-15.7 43.3h30.4l-3.8 10.5H87.8m209.7-53.8h50.3L344 49.4h-32.5l-4 11.2h30.6L334.4 71h-30.7l-4.2 11.5h33.2l-3.8 10.4h-51m2.8-49.4c-4.3-4.4-12.6-4.4-20.8-4.4h-27.3L213 92.9h30c5.8 0 12.3 0 18.3-2.2 8.2-3.1 11.9-8.1 13.4-12.2 4-11-6.9-12.8-10.7-13.4V65c3.5-.7 14.8-2.7 18.2-12.2 1.8-4.8 0-7.7-1.5-9.3zm-23.8 33.3c-2.3 6.3-9.4 6.3-11.5 6.3H234l4.6-12.8h10.9c2.5 0 9.8 0 7.4 6.5zm6.9-21.9c-.8 2.3-2.9 4.3-5.3 5.2-1.8.7-3.6.7-6.5.7h-9.9l4.3-11.9h11.2c1.9 0 3.8 0 5.4 1.3 1.4 1.1 1.4 3.1.8 4.7zm-85.4-15.8l-11.8 32.3c-1.1 2.9-1.9 6-.9 8.2 1.4 3 5.1 4.4 9.5 4.4 11.5 0 15.9-7.8 17.8-13.2L204.6 39h17.6l-11.5 31.5c-2.2 6-5.6 12.6-11.1 16.6-8.7 6.5-20.8 7.8-29.1 7.8-30.9 0-25.1-16-21.9-24.9L160 39h18.4zm-141 0h18.1L35.9 92.9H17.7m33.9-30.1l29.1-23.7h19.4L71 62.8l10.2 30.1H61.8m344.7-49.2c-4.5-4.6-13-4.6-21.6-4.6h-28.1l-19.6 53.8h17.7l15.8-44.1h11.8c2 0 4 .1 5.6 1.4 1.4 1.2 1.4 3.7.8 5.4-.9 2.4-3 4.5-5.6 5.5-1.8.7-3.8.7-6.8.7h-5l3.6 31.1h16.4l-3.1-26.7c3.6-.7 16-2.8 19.7-12.8 1.8-5 0-8-1.6-9.7z" fill="#fdb913"/><path d="M.2 141.1l14.5-39.7h5.5L7.4 136.3h21.4l-1.7 4.8H.2zm47.2.8c-4 0-7-.9-9.1-2.5-2.1-1.7-3.1-4.1-3.1-6.9 0-1.8.3-3.8 1.1-5.8l9.2-25.2H51l-9.4 25.7c-.5 1.5-.7 2.9-.7 4 .1 3.9 2.4 5.9 7.7 6 6.7 0 12.3-3.9 15-10.6l9.2-25.1h5.5l-9.4 25.8c-3.3 8.3-10.9 14.6-21.5 14.6zm42.7-.8H72.8l14.4-39.7h15.7c5.3 0 9.7 2.5 9.8 7.2 0 1.1-.2 2.2-.6 3.4-1.4 3.8-4.9 6.8-8.9 8.3 2.9 1.1 4.8 3.3 4.8 6.3 0 1.1-.2 2.4-.7 3.7-2 5.4-7.6 10.8-17.2 10.8.1 0 .1 0 0 0zM80 136.3h8.8c6.8-.1 11-1.7 12.9-7 .4-1 .5-1.8.5-2.5-.1-1.6-.9-2.5-2.8-3.1-1.9-.6-4.8-.8-8.1-.8h-6.5L80 136.3zm6.6-18.1h8.1c4.8 0 10-1.7 11.7-6.4.3-.9.4-1.6.4-2.2-.1-1.4-.7-2.1-2-2.7-1.3-.6-3.3-.8-5.3-.8H91l-4.4 12.1zm150.5 22.9l-1.2-15.1h-15.7l-12.1 15.1h-6l31.8-39.7h5.6l3.4 39.7h-5.8zm-1.5-19.8l-.9-13.8-10.9 13.8h11.8zm16 19.8l12.6-34.9h-13.7l1.7-4.7h32.7l-1.7 4.7h-13.5L257 141.1h-5.4zm75-40.5c4.6 0 8.1 1.1 10.6 3.2 2.4 2.1 3.7 5.2 3.7 8.8 0 2.7-.5 5.7-1.7 8.9-4.3 12.1-14.3 20.3-26.8 20.3-4.6 0-8.1-1.1-10.6-3.2-2.4-2.1-3.7-5.2-3.7-8.8 0-2.7.5-5.7 1.7-8.9 4.3-12 14.2-20.3 26.8-20.3m-21.3 20.9c-.9 2.5-1.4 5-1.4 7.2.2 4.9 2.4 8.3 9.5 8.4 10.1 0 17.2-8 20.1-16.2.9-2.5 1.4-5 1.4-7.2-.2-4.9-2.4-8.3-9.5-8.4-10.1.1-17.1 8.1-20.1 16.2zm62.1 19.6l-10.6-31.5-11.4 31.5h-5.5l14.4-39.7h5.5l10.9 32.1 11.7-32.1h5.5l-14.4 39.7h-6.1zm-230 0l-8.9-22.9h4.1c5.5 0 11.8-.4 13.8-6.3.4-1 .5-1.8.5-2.4-.1-1.6-.8-2.2-2.2-2.7-1.4-.5-3.4-.6-5.1-.6h-9.8l-12.7 34.9h-5.5l14.4-39.7h14.5c3.7 0 6.9.2 9.7 2.2 1.7 1.1 2.6 2.9 2.6 4.9 0 1.2-.3 2.6-.8 4-1.6 4.5-6.8 8.2-11.7 9-2.3.4-3.8.5-4.7.5l7.9 19.1h-6.1zm35.2-2.5c-2.4-2.1-3.5-5.1-3.5-8.5 0-2.8.6-5.9 1.9-9.1 4.1-10.7 13.8-20.3 27.9-20.3 4 0 7.2.8 10.2 2.2l.6.3-1.7 4.6-.8-.4c-2.7-1.3-4.6-1.9-9.5-2-11.2 0-17.9 8.5-20.8 16.2-1 2.6-1.6 5.2-1.6 7.5.2 4.5 2.2 7.8 9.7 7.9 4.3 0 8.3-.6 11.9-2.2l1.7-.7-2.1 6.1-.4.1c-4.1 1.1-8.5 1.6-12.4 1.6-5.1 0-8.7-1.2-11.1-3.3zm-6.9-37.2l-14.5 39.7h5.5l14.5-39.7m121.6 0l-14.5 39.7h5.5l14.5-39.7" fill="#fff"/></svg>